<svg width="500" height="373" viewBox="0 0 500 373" fill="none" xmlns="http://www.w3.org/2000/svg">
<path d="M500 327.4H0V327.7H500V327.4Z" fill="#EBEBEB"/>
<path d="M449.9 343.5H416.8V343.8H449.9V343.5Z" fill="#EBEBEB"/>
<path d="M331.2 346.2H322.5V346.5H331.2V346.2Z" fill="#EBEBEB"/>
<path d="M415.8 334.2H396.6V334.5H415.8V334.2Z" fill="#EBEBEB"/>
<path d="M95.7 335.9H52.5V336.2H95.7V335.9Z" fill="#EBEBEB"/>
<path d="M110.9 335.9H104.6V336.2H110.9V335.9Z" fill="#EBEBEB"/>
<path d="M225.2 340.1H131.5V340.4H225.2V340.1Z" fill="#EBEBEB"/>
<path d="M237 282.8H43.9002C40.8002 282.8 38.2002 280.2 38.2002 277.1V5.7C38.2002 2.6 40.8002 0 43.9002 0H237C240.1 0 242.7 2.6 242.7 5.7V277.1C242.7 280.2 240.2 282.8 237 282.8ZM43.9002 0.200001C40.9002 0.200001 38.4002 2.6 38.4002 5.7V277.1C38.4002 280.1 40.8002 282.6 43.9002 282.6H237C240 282.6 242.5 280.2 242.5 277.1V5.7C242.5 2.7 240.1 0.200001 237 0.200001H43.9002Z" fill="#EBEBEB"/>
<path d="M453.3 282.8H260.2C257.1 282.8 254.5 280.2 254.5 277.1V5.7C254.5 2.6 257.1 0 260.2 0H453.3C456.4 0 459 2.6 459 5.7V277.1C459 280.2 456.5 282.8 453.3 282.8ZM260.2 0.200001C257.2 0.200001 254.7 2.6 254.7 5.7V277.1C254.7 280.1 257.1 282.6 260.2 282.6H453.3C456.3 282.6 458.8 280.2 458.8 277.1V5.7C458.8 2.7 456.4 0.200001 453.3 0.200001H260.2Z" fill="#EBEBEB"/>
<path d="M289.662 119.091L427.462 119.091V28.8908L289.662 28.8908V119.091Z" fill="#E6E6E6"/>
<path d="M285.493 119.091L425.493 119.091V28.8908L285.493 28.8908V119.091Z" fill="#F0F0F0"/>
<path d="M289.662 136.725L427.462 136.725V119.025L289.662 119.025V136.725Z" fill="#E6E6E6"/>
<path d="M278.486 136.725L418.486 136.725V119.025L278.486 119.025V136.725Z" fill="#F0F0F0"/>
<path d="M419.642 113.248V34.748L291.442 34.748V113.248L419.642 113.248Z" fill="#FAFAFA"/>
<path d="M390.7 113.2L374.3 34.7002H348.8L365.1 113.2H390.7Z" fill="white"/>
<path d="M416.9 107.301C417.1 107.301 417.3 107.101 417.3 106.901V38.5006C417.3 38.3006 417.1 38.1006 416.9 38.1006C416.7 38.1006 416.5 38.3006 416.5 38.5006V106.801C416.5 107.101 416.7 107.301 416.9 107.301Z" fill="#F0F0F0"/>
<path d="M359.7 113.2L343.3 34.7002H333.3L349.7 113.2H359.7Z" fill="white"/>
<path d="M292.091 113.199V34.6992H291.391V113.199H292.091Z" fill="#E6E6E6"/>
<path opacity="0.6" d="M284.1 43.6H421.9L422.4 37H284.6L284.1 43.6Z" fill="#EBEBEB"/>
<path opacity="0.6" d="M284.1 54.4008H421.9L422.4 47.8008H284.6L284.1 54.4008Z" fill="#EBEBEB"/>
<path opacity="0.6" d="M284.1 65.2006H421.9L422.4 58.6006H284.6L284.1 65.2006Z" fill="#EBEBEB"/>
<path opacity="0.6" d="M284.1 76.0004H421.9L422.4 69.4004H284.6L284.1 76.0004Z" fill="#EBEBEB"/>
<path opacity="0.6" d="M284.1 86.8002H421.9L422.4 80.2002H284.6L284.1 86.8002Z" fill="#EBEBEB"/>
<path opacity="0.6" d="M284.1 97.6H421.9L422.4 91H284.6L284.1 97.6Z" fill="#EBEBEB"/>
<path d="M407.701 261.801H378.801V267.501H407.701V261.801Z" fill="#E6E6E6"/>
<path d="M324.348 327.432H329.648V196.332H324.348V327.432Z" fill="#E6E6E6"/>
<path d="M305.835 267.459H378.835V261.759H305.835V267.459Z" fill="#F5F5F5"/>
<path d="M407.701 292.9H378.801V298.6H407.701V292.9Z" fill="#E6E6E6"/>
<path d="M305.835 298.691H378.835V292.991H305.835V298.691Z" fill="#F5F5F5"/>
<path d="M407.701 199.4H378.801V205.1H407.701V199.4Z" fill="#E6E6E6"/>
<path d="M305.835 205.191H378.835V199.491H305.835V205.191Z" fill="#F5F5F5"/>
<path d="M407.701 230.601H378.801V236.301H407.701V230.601Z" fill="#E6E6E6"/>
<path d="M305.835 236.325H378.835V230.625H305.835V236.325Z" fill="#F5F5F5"/>
<path d="M397.275 327.432H402.575V196.332H397.275V327.432Z" fill="#E6E6E6"/>
<path d="M373.465 327.432H378.765V196.332H373.465V327.432Z" fill="#F5F5F5"/>
<path d="M305.905 327.432H311.205V196.332H305.905V327.432Z" fill="#F5F5F5"/>
<path d="M65.3248 327.406H119.925L119.925 221.506H65.3248L65.3248 327.406Z" fill="#E6E6E6"/>
<path d="M79.8994 327.4H65.3994V312.8H95.1994L79.8994 327.4Z" fill="#FAFAFA"/>
<path d="M214.144 327.406H268.744V221.506H214.144V327.406Z" fill="#E6E6E6"/>
<path d="M65.376 322.375H226.876V221.475H65.376V322.375Z" fill="#FAFAFA"/>
<path d="M212.3 327.4H226.9V312.8H197L212.3 327.4Z" fill="#FAFAFA"/>
<path d="M76.6762 284.322H215.576V259.122H76.6762V284.322Z" fill="#F0F0F0"/>
<path d="M76.6762 314.994H215.576V289.794H76.6762V314.994Z" fill="#F0F0F0"/>
<path d="M103.1 261.8H189.2C191.7 261.8 193.8 259.8 193.8 257.2V256.9H98.5V257.2C98.5 259.7 100.6 261.8 103.1 261.8Z" fill="#FAFAFA"/>
<path d="M76.6762 253.651L215.576 253.651V228.451L76.6762 228.451V253.651Z" fill="#F0F0F0"/>
<path d="M103.1 231.2H189.2C191.7 231.2 193.8 229.2 193.8 226.6V226.3H98.5V226.6C98.5 229.1 100.6 231.2 103.1 231.2Z" fill="#FAFAFA"/>
<path d="M103.1 292.4H189.2C191.7 292.4 193.8 290.4 193.8 287.8V287.5H98.5V287.8C98.5 290.4 100.6 292.4 103.1 292.4Z" fill="#FAFAFA"/>
<path d="M74.0174 119.091L211.817 119.091V28.8908L74.0174 28.8908V119.091Z" fill="#E6E6E6"/>
<path d="M69.8496 119.091L209.85 119.091V28.8908L69.8496 28.8908V119.091Z" fill="#F0F0F0"/>
<path d="M74.0174 136.725L211.817 136.725V119.025L74.0174 119.025V136.725Z" fill="#E6E6E6"/>
<path d="M62.8418 136.725L202.842 136.725V119.025L62.8418 119.025V136.725Z" fill="#F0F0F0"/>
<path d="M204.02 113.171L204.02 34.6709L75.8195 34.6709L75.8195 113.171L204.02 113.171Z" fill="#FAFAFA"/>
<path d="M175.101 113.2L158.701 34.7002H133.101L149.501 113.2H175.101Z" fill="white"/>
<path d="M201.3 107.301C201.5 107.301 201.7 107.101 201.7 106.901V38.5006C201.7 38.3006 201.5 38.1006 201.3 38.1006C201.1 38.1006 200.9 38.3006 200.9 38.5006V106.801C200.9 107.101 201 107.301 201.3 107.301Z" fill="#F0F0F0"/>
<path d="M144 113.2L127.6 34.7002H117.7L134.1 113.2H144Z" fill="white"/>
<path d="M76.4687 113.222L76.4688 34.7217H75.7688L75.7688 113.222H76.4687Z" fill="#E6E6E6"/>
<path opacity="0.6" d="M68.5 43.6H206.3L206.8 37H69L68.5 43.6Z" fill="#EBEBEB"/>
<path opacity="0.6" d="M68.5 47.3002H206.3L206.8 40.7002H69L68.5 47.3002Z" fill="#EBEBEB"/>
<path opacity="0.6" d="M68.5 51.0004H206.3L206.8 44.4004H69L68.5 51.0004Z" fill="#EBEBEB"/>
<path opacity="0.6" d="M68.5 54.7002H206.3L206.8 48.2002H69L68.5 54.7002Z" fill="#EBEBEB"/>
<path opacity="0.6" d="M68.5 58.5004H206.3L206.8 51.9004H69L68.5 58.5004Z" fill="#EBEBEB"/>
<path opacity="0.6" d="M68.5 62.2006H206.3L206.8 55.6006H69L68.5 62.2006Z" fill="#EBEBEB"/>
<path d="M95.9891 218.25H100.789V165.15H95.9891V218.25Z" fill="#F5F5F5"/>
<path d="M96.698 218.276H97.998V165.176H96.698V218.276Z" fill="#FAFAFA"/>
<path d="M98.5986 218.276H99.0986V165.176H98.5986V218.276Z" fill="#FAFAFA"/>
<path d="M80.7998 221.5H116C116 219 114 217.1 111.6 217.1H85.1998C82.7998 217.1 80.7998 219.1 80.7998 221.5Z" fill="#F0F0F0"/>
<path d="M89.7994 198.1C90.5994 198.1 91.1994 197.5 91.1994 196.7V162C91.1994 161.2 90.5994 160.6 89.7994 160.6C88.9994 160.6 88.3994 161.2 88.3994 162V196.8C88.4994 197.5 89.0994 198.1 89.7994 198.1Z" fill="#F0F0F0"/>
<path d="M77.0996 177.8H119.7L114.8 148H81.9996L77.0996 177.8Z" fill="#E0E0E0"/>
<path d="M250 372.5C357.088 372.5 443.9 367.441 443.9 361.2C443.9 354.96 357.088 349.9 250 349.9C142.912 349.9 56.0996 354.96 56.0996 361.2C56.0996 367.441 142.912 372.5 250 372.5Z" fill="#F5F5F5"/>
<path d="M104.135 147.383L103.138 147.455L104.467 165.907L105.464 165.835L104.135 147.383Z" fill="#C949B1"/>
<path d="M106.151 175.369L105.153 175.44L105.656 182.422L106.654 182.35L106.151 175.369Z" fill="#C949B1"/>
<path d="M337.7 260.2H123.6C118.8 260.2 114.5 256.2 114.2 251.4L103.7 105.3C103.4 100.5 107 96.5 111.9 96.5H326.1C330.9 96.5 335.2 100.5 335.5 105.3L346 251.4C346.2 256.2 342.6 260.2 337.7 260.2Z" fill="#C949B1"/>
<path d="M338.5 260.2H124.4C119.6 260.2 115.3 256.2 115 251.4L104.5 105.3C104.2 100.5 107.8 96.5 112.7 96.5H326.9C331.7 96.5 336 100.5 336.3 105.3L346.8 251.4C347.1 256.2 343.4 260.2 338.5 260.2Z" fill="#C949B1"/>
<path opacity="0.5" d="M338.5 260.2H124.4C119.6 260.2 115.3 256.2 115 251.4L104.5 105.3C104.2 100.5 107.8 96.5 112.7 96.5H326.9C331.7 96.5 336 100.5 336.3 105.3L346.8 251.4C347.1 256.2 343.4 260.2 338.5 260.2Z" fill="white"/>
<path d="M327.1 100.8H112.9C112.7 100.8 112.4 100.8 112.2 100.8C106.7 101.3 107.8 109.6 113.4 109.6H327.9C333.4 109.6 333.3 101.3 327.8 100.8C327.5 100.8 327.3 100.8 327.1 100.8Z" fill="#C949B1"/>
<path d="M118.5 105.2C118.6 106.3 117.7 107.2 116.6 107.2C115.5 107.2 114.5 106.3 114.4 105.2C114.3 104.1 115.2 103.2 116.3 103.2C117.4 103.2 118.4 104.1 118.5 105.2Z" fill="#FAFAFA"/>
<path d="M125.3 105.2C125.4 106.3 124.5 107.2 123.4 107.2C122.3 107.2 121.3 106.3 121.2 105.2C121.1 104.1 122 103.2 123.1 103.2C124.3 103.2 125.3 104.1 125.3 105.2Z" fill="#FAFAFA"/>
<path d="M132.199 105.2C132.299 106.3 131.399 107.2 130.299 107.2C129.199 107.2 128.199 106.3 128.099 105.2C127.999 104.1 128.899 103.2 129.999 103.2C131.099 103.2 132.099 104.1 132.199 105.2Z" fill="#FAFAFA"/>
<path d="M332.9 245.6H128C126.2 245.6 124.7 244.2 124.6 242.4L115.9 122.2C115.8 120.4 117.1 119 118.9 119H323.8C325.6 119 327.1 120.4 327.2 122.2L335.9 242.4C335.9 244.1 334.6 245.6 332.9 245.6Z" fill="white"/>
<path d="M246.5 199.8L243.2 153.5L233.1 147.4H205.3L209.1 199.8H246.5Z" fill="white"/>
<path d="M246.5 200.3H209C208.7 200.3 208.5 200.1 208.5 199.9L204.7 147.5C204.7 147.4 204.7 147.2 204.8 147.1C204.9 147 205 146.9 205.2 146.9H233C233.1 146.9 233.2 146.9 233.3 147L243.4 153.1C243.5 153.2 243.6 153.3 243.6 153.5L246.9 199.8C246.9 199.9 246.9 200.1 246.8 200.2C246.8 200.2 246.7 200.3 246.5 200.3ZM209.5 199.3H246L242.7 153.8L232.9 147.9H205.8L209.5 199.3Z" fill="#C949B1"/>
<path d="M243.201 153.5L233.101 147.4L236.801 155.5L243.201 153.5Z" fill="#EBEBEB"/>
<path d="M236.801 155.9C236.601 155.9 236.401 155.8 236.401 155.6L232.701 147.5C232.601 147.3 232.701 147.1 232.801 146.9C233.001 146.8 233.201 146.7 233.401 146.8L243.501 152.9C243.701 153 243.801 153.2 243.701 153.4C243.701 153.6 243.501 153.7 243.401 153.8L237.001 155.8C236.901 155.9 236.801 155.9 236.801 155.9ZM234.201 148.6L237.101 154.8L242.101 153.3L234.201 148.6Z" fill="#C949B1"/>
<path d="M221 171C221.1 172.2 220.2 173.1 219 173.1C217.8 173.1 216.8 172.2 216.7 171C216.6 169.8 217.5 168.9 218.7 168.9C219.9 168.9 220.9 169.8 221 171Z" fill="#C949B1"/>
<path d="M234.7 171C234.8 172.2 233.9 173.1 232.7 173.1C231.5 173.1 230.5 172.2 230.4 171C230.3 169.8 231.2 168.9 232.4 168.9C233.6 168.9 234.6 169.8 234.7 171Z" fill="#C949B1"/>
<path d="M238.6 184.701C238.3 184.701 238.1 184.501 238.1 184.301C237.9 180.901 232.5 178.101 226.2 178.101C222 178.101 218.3 179.301 216.4 181.301C215.6 182.201 215.2 183.201 215.3 184.201C215.3 184.501 215.1 184.701 214.9 184.701C214.6 184.701 214.4 184.501 214.4 184.301C214.3 183.001 214.8 181.801 215.8 180.701C217.8 178.501 221.9 177.101 226.3 177.101C233.2 177.101 238.9 180.201 239.2 184.201C239.1 184.501 238.9 184.701 238.6 184.701Z" fill="#C949B1"/>
<path d="M213.2 166.7C213.1 166.7 213 166.7 212.9 166.6C212.7 166.4 212.7 166.1 212.9 165.9L215 163.6C215.2 163.4 215.5 163.4 215.7 163.6C215.9 163.8 215.9 164.1 215.7 164.3L213.6 166.6C213.4 166.7 213.3 166.7 213.2 166.7Z" fill="#C949B1"/>
<path d="M237.6 166.7C237.5 166.7 237.4 166.7 237.3 166.6L234.8 164.3C234.6 164.1 234.6 163.8 234.8 163.6C235 163.4 235.3 163.4 235.5 163.6L238 165.9C238.2 166.1 238.2 166.4 238 166.6C237.8 166.7 237.7 166.7 237.6 166.7Z" fill="#C949B1"/>
<path d="M202.3 210.2H204.6L207.9 214.5L207.6 210.2H209.9L210.5 218H208L204.8 213.7L205.1 218H202.8L202.3 210.2Z" fill="#C949B1"/>
<path d="M211.3 214.1C211.2 212.8 211.5 211.8 212.2 211.1C212.9 210.4 213.8 210 215.1 210C216.4 210 217.4 210.4 218.2 211C219 211.7 219.4 212.7 219.5 213.9C219.6 214.8 219.5 215.6 219.2 216.2C218.9 216.8 218.5 217.2 218 217.6C217.4 217.9 216.7 218.1 215.9 218.1C215 218.1 214.3 218 213.7 217.7C213.1 217.4 212.6 217 212.2 216.4C211.6 215.8 211.4 215 211.3 214.1ZM213.8 214.1C213.9 214.9 214 215.5 214.4 215.8C214.7 216.1 215.1 216.3 215.6 216.3C216.1 216.3 216.5 216.1 216.8 215.8C217.1 215.5 217.2 214.9 217.1 214C217 213.3 216.9 212.7 216.5 212.4C216.1 212.1 215.8 211.9 215.3 211.9C214.8 211.9 214.4 212.1 214.2 212.4C213.8 212.7 213.7 213.3 213.8 214.1Z" fill="#C949B1"/>
<path d="M224.2 210.2H227.8C228.5 210.2 229.1 210.3 229.5 210.5C230 210.7 230.3 211 230.6 211.3C230.9 211.7 231.1 212.1 231.3 212.6C231.5 213.1 231.6 213.6 231.6 214.1C231.7 214.9 231.6 215.6 231.5 216C231.3 216.5 231.1 216.8 230.8 217.2C230.5 217.5 230.1 217.7 229.8 217.8C229.3 217.9 228.8 218 228.4 218H224.8L224.2 210.2ZM226.7 211.9L227 216.2H227.6C228.1 216.2 228.5 216.1 228.7 216C228.9 215.9 229.1 215.7 229.2 215.4C229.3 215.1 229.3 214.7 229.3 214C229.2 213.2 229.1 212.6 228.8 212.3C228.5 212 228 211.8 227.4 211.8H226.7V211.9Z" fill="#C949B1"/>
<path d="M237.399 216.7H234.699L234.399 218H231.899L234.299 210.2H236.899L240.399 218H237.899L237.399 216.7ZM236.799 215L235.699 212.2L234.999 215H236.799Z" fill="#C949B1"/>
<path d="M239.399 210.2H246.799L246.899 212.1H244.399L244.799 218H242.399L241.999 212.1H239.499L239.399 210.2Z" fill="#C949B1"/>
<path d="M252.399 216.7H249.699L249.399 218H246.899L249.299 210.2H251.899L255.399 218H252.899L252.399 216.7ZM251.699 215L250.599 212.2L249.999 215H251.699Z" fill="#C949B1"/>
</svg>
