<svg width="497" height="371" viewBox="0 0 497 371" fill="none" xmlns="http://www.w3.org/2000/svg">
<path d="M207.5 178.9C207.5 179.6 206.9 180.2 206.2 180.2C205.5 180.2 204.9 179.6 204.9 178.9C204.9 178.2 205.5 177.6 206.2 177.6C206.9 177.6 207.5 178.1 207.5 178.9Z" fill="#389FE5"/>
<path d="M144.5 23.8996C144.5 24.5996 143.9 25.1996 143.2 25.1996C142.5 25.1996 141.9 24.5996 141.9 23.8996C141.9 23.1996 142.5 22.5996 143.2 22.5996C143.9 22.5996 144.5 23.1996 144.5 23.8996Z" fill="#389FE5"/>
<path d="M313.102 46.8996C313.102 47.5996 312.502 48.1996 311.802 48.1996C311.102 48.1996 310.502 47.5996 310.502 46.8996C310.502 46.1996 311.102 45.5996 311.802 45.5996C312.502 45.5996 313.102 46.1996 313.102 46.8996Z" fill="#389FE5"/>
<path d="M433.702 46.8996C433.702 47.5996 433.102 48.1996 432.402 48.1996C431.702 48.1996 431.102 47.5996 431.102 46.8996C431.102 46.1996 431.702 45.5996 432.402 45.5996C433.102 45.5996 433.702 46.1996 433.702 46.8996Z" fill="#389FE5"/>
<path d="M394.702 123C394.702 123.7 394.102 124.3 393.402 124.3C392.702 124.3 392.102 123.7 392.102 123C392.102 122.3 392.702 121.7 393.402 121.7C394.202 121.7 394.702 122.3 394.702 123Z" fill="#389FE5"/>
<path d="M79.502 78.2997C79.202 78.2997 79.002 78.0997 79.002 77.7997V74.1997C79.002 73.8997 79.202 73.6997 79.502 73.6997C79.802 73.6997 80.002 73.8997 80.002 74.1997V77.7997C80.002 77.9997 79.802 78.2997 79.502 78.2997Z" fill="#389FE5"/>
<path d="M81.3012 76.4995H77.7012C77.4012 76.4995 77.2012 76.2995 77.2012 75.9995C77.2012 75.6995 77.4012 75.4995 77.7012 75.4995H81.3012C81.6012 75.4995 81.8012 75.6995 81.8012 75.9995C81.8012 76.2995 81.6012 76.4995 81.3012 76.4995Z" fill="#389FE5"/>
<path d="M139.701 133.6C139.401 133.6 139.201 133.4 139.201 133.1V129.5C139.201 129.2 139.401 129 139.701 129C140.001 129 140.201 129.2 140.201 129.5V133.1C140.301 133.3 140.001 133.6 139.701 133.6Z" fill="#389FE5"/>
<path d="M141.5 131.799H137.9C137.6 131.799 137.4 131.599 137.4 131.299C137.4 130.999 137.6 130.799 137.9 130.799H141.5C141.8 130.799 142 130.999 142 131.299C142 131.499 141.8 131.799 141.5 131.799Z" fill="#389FE5"/>
<path d="M382.201 8.69961C381.901 8.69961 381.701 8.49961 381.701 8.19961V4.59961C381.701 4.29961 381.901 4.09961 382.201 4.09961C382.501 4.09961 382.701 4.29961 382.701 4.59961V8.19961C382.801 8.49961 382.501 8.69961 382.201 8.69961Z" fill="#389FE5"/>
<path d="M384 6.89941H380.4C380.1 6.89941 379.9 6.69941 379.9 6.39941C379.9 6.09941 380.1 5.89941 380.4 5.89941H384C384.3 5.89941 384.5 6.09941 384.5 6.39941C384.6 6.69941 384.3 6.89941 384 6.89941Z" fill="#389FE5"/>
<path d="M488.502 137.7C488.202 137.7 488.002 137.5 488.002 137.2V133.6C488.002 133.3 488.202 133.1 488.502 133.1C488.802 133.1 489.002 133.3 489.002 133.6V137.2C489.002 137.5 488.702 137.7 488.502 137.7Z" fill="#389FE5"/>
<path d="M490.301 135.899H486.701C486.401 135.899 486.201 135.699 486.201 135.399C486.201 135.099 486.401 134.899 486.701 134.899H490.301C490.601 134.899 490.801 135.099 490.801 135.399C490.801 135.699 490.501 135.899 490.301 135.899Z" fill="#389FE5"/>
<path d="M321.602 191.8C321.302 191.8 321.102 191.6 321.102 191.3V187.7C321.102 187.4 321.302 187.2 321.602 187.2C321.902 187.2 322.102 187.4 322.102 187.7V191.3C322.102 191.6 321.902 191.8 321.602 191.8Z" fill="#389FE5"/>
<path d="M323.401 190.1H319.801C319.501 190.1 319.301 189.9 319.301 189.6C319.301 189.3 319.501 189.1 319.801 189.1H323.401C323.701 189.1 323.901 189.3 323.901 189.6C323.901 189.8 323.701 190.1 323.401 190.1Z" fill="#389FE5"/>
<path d="M267.701 4.89981C267.401 4.89981 267.201 4.69981 267.201 4.39981V0.799805C267.201 0.499805 267.401 0.299805 267.701 0.299805C268.001 0.299805 268.201 0.499805 268.201 0.799805V4.39981C268.201 4.69981 268.001 4.89981 267.701 4.89981Z" fill="#389FE5"/>
<path d="M269.5 3.19971H265.9C265.6 3.19971 265.4 2.99971 265.4 2.69971C265.4 2.39971 265.6 2.19971 265.9 2.19971H269.5C269.8 2.19971 270 2.39971 270 2.69971C270 2.89971 269.8 3.19971 269.5 3.19971Z" fill="#389FE5"/>
<path d="M316.199 289.599C320.399 280.999 327.299 273.899 334.799 268.099C340.899 263.399 347.799 258.899 354.999 256.199C361.399 253.799 362.799 259.399 367.999 261.299C371.299 262.499 374.999 260.699 377.599 258.299C380.099 255.999 382.199 253.099 385.199 251.399C387.399 250.099 390.699 249.499 392.999 250.899C395.899 252.599 395.399 256.699 399.299 257.199C401.099 257.399 402.899 256.799 404.499 255.999C408.299 254.099 412.199 252.399 416.299 251.199C419.999 250.099 424.899 249.699 426.999 252.999C429.099 256.099 427.099 260.299 424.599 263.099C418.599 269.799 409.799 273.399 400.899 274.599C398.499 274.899 395.999 275.099 393.699 276.099C391.499 277.099 389.499 279.099 389.399 281.599C389.399 282.899 389.799 284.199 389.899 285.499C389.899 289.199 386.299 291.899 382.799 292.699C373.599 294.799 367.599 286.699 358.999 285.499C349.199 284.099 334.199 285.599 327.399 293.899" fill="#B0EEFF"/>
<path opacity="0.5" d="M332.299 285.6C341.799 276.8 354.299 270.9 367.399 269.2C375.599 268.1 383.899 268.6 392.099 267.9C400.299 267.2 408.799 264.9 414.699 259.5" stroke="white" stroke-width="0.891" stroke-miterlimit="10" stroke-linecap="round" stroke-linejoin="round"/>
<path d="M375.2 249.199C380.1 246.399 385.3 242.399 384 236.399C383.5 234.399 382.1 232.599 382.3 230.599C382.5 229.299 383.3 228.199 384 226.999C385.5 224.199 385.7 220.799 384.6 217.799C383.3 214.599 380.7 212.299 379 209.299C377.6 206.899 377 204.099 377.1 201.299C371.9 201.799 367.5 205.099 362.5 206.499C358.7 207.599 354.6 207.599 350.8 208.799C343.9 211.099 338.7 217.799 338.3 224.999C335 224.699 331.6 226.199 329.5 228.899C327.3 231.699 326.3 235.499 326.8 238.899C329.1 253.399 336.5 264.999 346.1 275.799C344 273.499 350.4 266.199 351.6 264.699C357 258.499 364.3 254.999 371.4 251.099C372.6 250.599 373.8 249.999 375.2 249.199Z" fill="#B0EEFF"/>
<g opacity="0.5">
<path d="M347.3 256.399C346.1 250.199 347.7 243.699 349.7 237.699C351.6 231.799 354 225.999 357.3 220.799C360.7 215.599 365.1 210.999 370.6 208.099" stroke="white" stroke-width="0.891" stroke-miterlimit="10" stroke-linecap="round" stroke-linejoin="round"/>
<path d="M348.899 213.999C348.799 219.699 349.799 226.399 351.799 231.699" stroke="white" stroke-width="0.891" stroke-miterlimit="10" stroke-linecap="round" stroke-linejoin="round"/>
<path d="M352.699 229.599C358.699 224.899 368.399 221.499 375.999 221.199" stroke="white" stroke-width="0.891" stroke-miterlimit="10" stroke-linecap="round" stroke-linejoin="round"/>
<path d="M337.1 232.099C345.1 234.599 346.5 245.999 347 249.199" stroke="white" stroke-width="0.891" stroke-miterlimit="10" stroke-linecap="round" stroke-linejoin="round"/>
<path d="M348.4 241.799C353.9 236.999 363.4 231.899 369.8 232.899" stroke="white" stroke-width="0.891" stroke-miterlimit="10" stroke-linecap="round" stroke-linejoin="round"/>
<path d="M347.299 255.799C351.699 249.999 363.599 242.799 370.099 243.799" stroke="white" stroke-width="0.891" stroke-miterlimit="10" stroke-linecap="round" stroke-linejoin="round"/>
<path d="M361.7 209.899C360.1 212.299 359.9 214.899 360.3 216.699" stroke="white" stroke-width="0.891" stroke-miterlimit="10" stroke-linecap="round" stroke-linejoin="round"/>
<path d="M361.799 214.999C364.399 213.399 367.999 212.699 371.999 213.299" stroke="white" stroke-width="0.891" stroke-miterlimit="10" stroke-linecap="round" stroke-linejoin="round"/>
</g>
<path d="M235.999 300.099C229.399 281.999 212.399 265.099 195.699 255.399C191.599 252.999 185.699 251.299 183.799 256.899C182.599 260.499 178.399 259.599 175.999 257.899C172.999 255.799 171.299 252.499 168.799 249.899C166.799 247.899 164.199 246.299 161.299 245.899C158.499 245.399 155.399 246.199 153.299 248.199C151.699 249.699 150.799 251.799 148.999 253.099C146.099 255.299 141.799 254.499 138.699 252.599C135.599 250.699 133.099 247.899 130.099 245.799C127.099 243.699 122.999 242.499 119.799 244.299C115.499 246.599 115.099 252.799 116.999 257.299C118.099 260.099 119.899 264.099 121.999 266.299C124.999 269.399 129.399 271.399 133.599 272.299C136.699 272.899 139.899 272.899 142.899 273.599C143.999 273.899 145.299 274.299 145.499 275.599C145.799 277.399 143.499 278.599 142.199 279.199C139.899 280.399 137.599 282.899 138.699 285.199C139.399 286.699 141.099 287.299 142.699 287.599C147.499 288.399 152.199 286.999 156.799 285.599C159.599 284.699 161.999 282.999 164.799 282.299C166.299 281.899 169.999 281.799 169.599 284.199C169.499 284.999 168.899 285.599 168.299 286.099C167.699 286.599 166.999 287.099 166.499 287.699C164.299 290.299 166.499 293.499 169.299 294.199C171.499 294.699 173.799 294.199 175.999 293.699C190.399 290.299 205.499 288.999 219.899 291.999C222.999 292.599 226.399 293.699 227.899 296.399" fill="#B0EEFF"/>
<path opacity="0.5" d="M220.5 288.699C209.9 278.899 195.9 272.499 181.3 270.599C172.2 269.499 162.9 270.099 153.8 269.299C144.6 268.499 135.1 266.099 128.5 259.999" stroke="white" stroke-width="0.891" stroke-miterlimit="10" stroke-linecap="round" stroke-linejoin="round"/>
<path opacity="0.25" d="M223.8 290.099C223.8 290.099 198.7 273.399 191.6 256.399C196.4 257.699 199.5 259.299 202.9 261.999C206.5 267.099 215.2 274.999 221 280.099C221.8 282.899 222.7 286.199 223.8 290.099Z" fill="#FCCCB1"/>
<path d="M222.799 284.299C221.899 278.399 219.299 272.499 218.199 266.499C216.599 256.899 216.299 247.199 218.099 237.599C219.599 229.399 222.099 220.899 219.399 212.699C218.699 210.499 217.299 208.099 214.499 208.199C213.399 208.199 212.299 208.699 211.499 209.399C209.399 211.199 208.999 213.899 208.699 216.399L207.599 224.799C207.199 227.499 203.099 227.899 202.199 225.199C202.199 225.199 202.199 225.199 202.199 225.099C201.499 222.899 201.599 220.499 201.799 218.199C202.199 213.199 202.799 208.099 202.099 203.099C201.199 196.999 197.799 190.899 191.399 188.599C189.099 187.799 186.599 187.699 184.199 188.399C177.699 190.299 176.399 196.399 177.699 201.499C178.599 205.099 180.599 208.399 182.499 211.699C186.999 219.699 184.599 227.299 185.699 236.299C187.999 255.299 206.599 273.699 222.799 284.299Z" fill="#B0EEFF"/>
<path opacity="0.5" d="M187.299 199.399C200.899 215.799 195.999 254.699 219.699 275.599" stroke="white" stroke-width="0.891" stroke-miterlimit="10" stroke-linecap="round" stroke-linejoin="round"/>
<path opacity="0.5" d="M213.8 218.699C215.4 226.999 210 236.299 208.8 241.499C207.6 246.699 206.9 255.499 208.2 260.699" stroke="white" stroke-width="0.891" stroke-miterlimit="10" stroke-linecap="round" stroke-linejoin="round"/>
<path d="M174.799 299.899C174.199 296.599 164.899 275.899 154.199 281.399C147.799 284.699 148.999 296.799 158.899 305.999C156.899 304.099 154.699 301.999 151.999 301.399C150.599 301.099 148.799 301.799 147.699 302.799C146.699 303.699 146.499 305.099 146.399 306.399C146.199 311.199 148.699 315.899 152.699 318.499C150.499 317.299 148.599 315.699 146.099 315.499C145.299 315.399 143.899 315.899 143.499 316.599C143.099 317.399 143.099 320.399 147.999 322.599C128.199 318.799 127.099 327.299 134.199 327.299C141.299 327.299 192.499 327.299 192.499 327.299" fill="#E9F9FF"/>
<path d="M211.799 283.499C210.899 278.199 201.099 244.699 183.899 253.599C173.699 258.899 175.499 278.299 191.499 292.999C188.399 289.999 184.799 286.499 180.499 285.699C178.199 285.199 175.399 286.299 173.599 287.899C172.099 289.299 171.599 291.599 171.499 293.699C171.199 301.299 175.199 308.899 181.599 313.099C178.099 311.099 174.999 308.699 170.999 308.299C169.699 308.199 167.499 308.899 166.899 310.099C166.199 311.399 166.299 316.099 174.099 319.699C142.399 313.699 140.599 327.199 151.999 327.199C163.399 327.199 227.199 327.199 227.199 327.199" fill="#D7F6FF"/>
<path d="M381.2 299.899C381.8 296.599 391.1 275.899 401.8 281.399C408.2 284.699 407 296.799 397.1 305.999C399.1 304.099 401.3 301.999 404 301.399C405.4 301.099 407.2 301.799 408.3 302.799C409.3 303.699 409.5 305.099 409.6 306.399C409.8 311.199 407.3 315.899 403.3 318.499C405.5 317.299 407.4 315.699 409.9 315.499C410.7 315.399 412.1 315.899 412.5 316.599C412.9 317.399 412.9 320.399 408 322.599C427.8 318.799 428.9 327.299 421.8 327.299C414.7 327.299 363.5 327.299 363.5 327.299" fill="#E9F9FF"/>
<path d="M344.199 283.499C345.099 278.199 354.899 244.699 372.099 253.599C382.299 258.899 380.499 278.299 364.499 292.999C367.599 289.999 371.199 286.499 375.499 285.699C377.799 285.199 380.599 286.299 382.399 287.899C383.899 289.299 384.399 291.599 384.499 293.699C384.799 301.299 380.799 308.899 374.399 313.099C377.899 311.099 380.999 308.699 384.999 308.299C386.299 308.199 388.499 308.899 389.099 310.099C389.799 311.399 389.699 316.099 381.899 319.699C413.599 313.699 415.399 327.199 403.999 327.199C392.599 327.199 328.799 327.199 328.799 327.199" fill="#D7F6FF"/>
<path opacity="0.2" d="M290.8 214.999C282.1 212.599 275.5 205.199 274.9 196.199C274.9 195.799 274.9 195.299 274.9 194.899C274.9 194.799 274.9 194.599 274.9 194.499C274.9 194.399 274.9 194.199 274.9 194.099C274.9 193.699 274.9 193.199 274.9 192.799C275.4 183.799 282 176.399 290.8 173.999C323.6 164.899 347.7 134.799 347.7 99.0994C347.7 94.2994 347.3 89.5994 346.4 84.9994C346.3 84.1994 346.1 83.3994 345.9 82.6994C345.8 82.0994 345.7 81.5994 345.5 80.9994V80.8994C345.4 80.5994 345.4 80.2994 345.3 79.9994C345.2 79.3994 345 78.8994 344.9 78.3994C344.7 77.5994 344.4 76.6994 344.2 75.8994H341.5C341.6 76.1994 341.7 76.3994 341.8 76.6994C341.8 76.7994 341.8 76.7994 341.9 76.7994C342 77.2994 342.2 77.6994 342.3 78.1994C342.4 78.4994 342.5 78.7994 342.6 79.0994C342.7 79.5994 342.9 80.0994 343 80.5994C343.1 80.8994 343.2 81.1994 343.2 81.4994C343.3 81.9994 343.4 82.4994 343.5 82.9994C343.5 83.1994 343.6 83.2994 343.6 83.4994C343.6 83.5994 343.6 83.5994 343.6 83.6994C343.7 84.2994 343.8 84.7994 343.9 85.3994C344.7 89.7994 345.1 94.3994 345.1 98.9994C345.1 132.699 322.5 162.399 290 171.399C280 174.199 272.9 182.599 272.3 192.499C272.3 192.999 272.3 193.499 272.3 193.899C272.3 193.999 272.3 194.199 272.3 194.299C272.3 194.399 272.3 194.599 272.3 194.699C272.3 195.199 272.3 195.699 272.3 196.099C272.9 205.999 280 214.499 290 217.199C322.4 226.199 345.1 255.999 345.1 289.599C345.1 294.199 344.7 298.799 343.9 303.199C342.8 309.499 340.8 315.599 338.1 321.499H202C199.3 315.699 197.3 309.499 196.2 303.199C195.4 298.799 195 294.199 195 289.599C195 255.899 217.6 226.199 250.1 217.199C260.1 214.399 267.2 205.999 267.8 196.099C267.8 195.599 267.8 195.099 267.8 194.699C267.8 194.599 267.8 194.399 267.8 194.299C267.8 194.199 267.8 193.999 267.8 193.899C267.8 193.399 267.8 192.899 267.8 192.499C267.2 182.599 260.1 174.199 250.1 171.399C217.7 162.399 195 132.599 195 98.9994C195 94.3994 195.4 89.7994 196.2 85.3994C196.3 84.5994 196.5 83.7994 196.7 82.9994C196.7 82.9994 196.7 82.9994 196.7 82.8994C196.9 82.0994 197 81.3994 197.2 80.5994V80.4994C197.3 79.8994 197.5 79.2994 197.7 78.7994C197.7 78.6994 197.7 78.6994 197.7 78.6994C197.7 78.4994 197.8 78.1994 197.9 77.9994C198 77.5994 198.1 77.1994 198.3 76.7994C198.3 76.6994 198.3 76.6994 198.3 76.6994C198.4 76.3994 198.5 76.1994 198.6 75.8994H196C195.7 76.6994 195.5 77.5994 195.3 78.3994C195.1 78.8994 195 79.4994 194.9 79.9994C194.8 80.2994 194.8 80.5994 194.7 80.8994V80.9994C194.6 81.5994 194.4 82.0994 194.3 82.6994C194.1 83.4994 194 84.1994 193.8 84.9994C192.9 89.5994 192.5 94.2994 192.5 99.0994C192.5 134.799 216.6 164.899 249.4 173.999C258.1 176.399 264.7 183.799 265.3 192.799C265.3 193.199 265.3 193.699 265.3 194.099C265.3 194.199 265.3 194.399 265.3 194.499C265.3 194.599 265.3 194.799 265.3 194.899C265.3 195.299 265.3 195.799 265.3 196.199C264.8 205.199 258.2 212.599 249.4 214.999C216.6 224.099 192.5 254.199 192.5 289.899C192.5 294.699 192.9 299.399 193.8 303.999C195.1 311.199 197.4 317.999 200.5 324.299H339.8C342.9 317.999 345.2 311.199 346.5 303.999C347.4 299.399 347.8 294.699 347.8 289.899C347.7 254.199 323.6 224.099 290.8 214.999Z" fill="#389FE5"/>
<path d="M345.2 289.9C345.2 294.5 344.8 299.1 344 303.5C342.9 309.8 340.9 315.9 338.2 321.8H202C199.3 316 197.3 309.8 196.2 303.5C195.4 299.1 195 294.5 195 289.9C195 256.2 217.6 226.5 250.1 217.5C260.1 214.7 267.2 206.3 267.8 196.4C267.8 195.9 267.8 195.4 267.8 195C267.8 194.9 267.8 194.7 267.8 194.6C267.8 194.5 267.8 194.3 267.8 194.2C267.8 193.7 267.8 193.2 267.8 192.8C267.2 182.9 260.1 174.5 250.1 171.7C217.7 162.7 195 132.9 195 99.2996C195 94.6996 195.4 90.0996 196.2 85.6996C196.3 84.8996 196.5 84.0996 196.7 83.2996C196.7 83.2996 196.7 83.2996 196.7 83.1996C196.9 82.3996 197 81.6996 197.2 80.8996V80.7996C197.4 80.1996 197.5 79.4996 197.7 78.8996C197.9 78.2996 198.1 77.5996 198.3 76.9996C198.4 76.6996 198.5 76.3996 198.6 76.0996H341.6C341.7 76.3996 341.8 76.6996 341.9 76.9996C342 77.4996 342.2 77.8996 342.3 78.3996C342.4 78.6996 342.5 78.9996 342.6 79.2996C342.7 79.7996 342.9 80.2996 343 80.7996C343.1 81.0996 343.2 81.3996 343.2 81.6996C343.3 82.1996 343.4 82.6996 343.5 83.1996C343.5 83.3996 343.6 83.6996 343.6 83.8996C343.7 84.4996 343.8 84.9996 343.9 85.5996C344.7 89.9996 345.1 94.5996 345.1 99.1996C345.1 132.9 322.5 162.6 290 171.6C280 174.4 272.9 182.8 272.3 192.7C272.3 193.2 272.3 193.7 272.3 194.1C272.3 194.2 272.3 194.4 272.3 194.5C272.3 194.6 272.3 194.8 272.3 194.9C272.3 195.4 272.3 195.9 272.3 196.3C272.9 206.2 280 214.7 290 217.4C322.5 226.4 345.2 256.2 345.2 289.9Z" fill="white"/>
<path opacity="0.5" d="M345.2 289.9C345.2 294.5 344.8 299.1 344 303.5C342.9 309.8 340.9 315.9 338.2 321.8H202C199.3 316 197.3 309.8 196.2 303.5C195.4 299.1 195 294.5 195 289.9C195 256.2 217.6 226.5 250.1 217.5C260.1 214.7 267.2 206.3 267.8 196.4C267.8 195.9 267.8 195.4 267.8 195C267.8 194.9 267.8 194.7 267.8 194.6C267.8 194.5 267.8 194.3 267.8 194.2C267.8 193.7 267.8 193.2 267.8 192.8C267.2 182.9 260.1 174.5 250.1 171.7C217.7 162.7 195 132.9 195 99.2996C195 94.6996 195.4 90.0996 196.2 85.6996C196.3 84.8996 196.5 84.0996 196.7 83.2996C196.7 83.2996 196.7 83.2996 196.7 83.1996C196.9 82.3996 197 81.6996 197.2 80.8996V80.7996C197.4 80.1996 197.5 79.4996 197.7 78.8996C197.9 78.2996 198.1 77.5996 198.3 76.9996C198.4 76.6996 198.5 76.3996 198.6 76.0996H341.6C341.7 76.3996 341.8 76.6996 341.9 76.9996C342 77.4996 342.2 77.8996 342.3 78.3996C342.4 78.6996 342.5 78.9996 342.6 79.2996C342.7 79.7996 342.9 80.2996 343 80.7996C343.1 81.0996 343.2 81.3996 343.2 81.6996C343.3 82.1996 343.4 82.6996 343.5 83.1996C343.5 83.3996 343.6 83.6996 343.6 83.8996C343.7 84.4996 343.8 84.9996 343.9 85.5996C344.7 89.9996 345.1 94.5996 345.1 99.1996C345.1 132.9 322.5 162.6 290 171.6C280 174.4 272.9 182.8 272.3 192.7C272.3 193.2 272.3 193.7 272.3 194.1C272.3 194.2 272.3 194.4 272.3 194.5C272.3 194.6 272.3 194.8 272.3 194.9C272.3 195.4 272.3 195.9 272.3 196.3C272.9 206.2 280 214.7 290 217.4C322.5 226.4 345.2 256.2 345.2 289.9Z" fill="#D7ECFA"/>
<path d="M208.102 143.4C208.102 143.4 219.902 162.8 248.402 171.8C255.702 173.9 258.102 175.5 262.302 179.4C266.502 183.3 267.902 190.1 267.802 195.4C267.702 199.6 270.102 260.399 270.102 267.999C270.102 275.099 271.002 269.9 270.802 268.3C271.502 225.2 272.402 193.6 272.402 193.6C272.402 193.6 275.002 180.1 279.002 178.2C283.002 176.3 297.402 169.599 303.402 167.999C309.302 166.299 323.602 153.3 323.602 153.3C323.602 153.3 341.802 127.4 342.902 124.1C344.002 120.8 334.702 120.5 334.702 120.5L208.102 143.4Z" fill="#FF9A30"/>
<path d="M276.537 144.71C314.62 138.735 344.493 127.522 343.26 119.665C342.027 111.809 310.156 110.283 272.073 116.259C233.99 122.234 204.116 133.447 205.349 141.303C206.582 149.16 238.454 150.685 276.537 144.71Z" fill="#FDCF33"/>
<g opacity="0.5">
<path d="M249.6 161.999C248.8 161.999 248 161.899 247.1 161.599C241.7 159.699 236.6 157.399 232.1 154.499C228.6 152.299 227.5 147.599 229.7 143.999C231.9 140.499 236.6 139.399 240.2 141.599C243.7 143.799 247.7 145.699 252 147.199C256 148.599 258.1 152.899 256.7 156.799C255.7 159.999 252.7 161.999 249.6 161.999Z" fill="white"/>
<path d="M219.901 139.699C217.401 139.699 214.901 138.499 213.501 136.199C200.301 115.399 203.701 92.0992 203.801 91.0992C204.401 86.9992 208.301 84.0992 212.401 84.7992C216.501 85.3992 219.401 89.2992 218.701 93.3992C218.701 93.6992 216.101 112.299 226.201 128.099C228.401 131.599 227.401 136.299 223.901 138.599C222.701 139.299 221.301 139.699 219.901 139.699Z" fill="white"/>
</g>
<g opacity="0.5">
<path d="M249.6 226.1C248.8 226.1 248 226.2 247.1 226.5C241.7 228.4 236.6 230.7 232.1 233.6C228.6 235.8 227.5 240.5 229.7 244.1C231.9 247.6 236.6 248.7 240.2 246.5C243.7 244.3 247.7 242.4 252 240.9C256 239.5 258.1 235.2 256.7 231.3C255.7 228.1 252.7 226.1 249.6 226.1Z" fill="white"/>
<path d="M219.901 248.5C217.401 248.5 214.901 249.7 213.501 252C200.301 272.8 203.701 296.1 203.801 297.1C204.401 301.2 208.301 304.1 212.401 303.4C216.501 302.8 219.401 298.9 218.701 294.8C218.701 294.5 216.101 275.9 226.201 260.1C228.401 256.6 227.401 251.9 223.901 249.6C222.701 248.9 221.301 248.5 219.901 248.5Z" fill="white"/>
</g>
<path d="M290.8 214.999C282.1 212.599 275.5 205.199 274.9 196.199C274.9 195.799 274.9 195.299 274.9 194.899C274.9 194.799 274.9 194.599 274.9 194.499C274.9 194.399 274.9 194.199 274.9 194.099C274.9 193.699 274.9 193.199 274.9 192.799C275.4 183.799 282 176.399 290.8 173.999C323.6 164.899 347.7 134.799 347.7 99.0994C347.7 94.2994 347.3 89.5994 346.4 84.9994C346.3 84.1994 346.1 83.3994 345.9 82.6994C345.8 82.0994 345.7 81.5994 345.5 80.9994V80.8994C345.4 80.5994 345.4 80.2994 345.3 79.9994C345.2 79.3994 345 78.8994 344.9 78.3994C344.7 77.5994 344.4 76.6994 344.2 75.8994H341.5C341.6 76.1994 341.7 76.3994 341.8 76.6994C341.8 76.7994 341.8 76.7994 341.9 76.7994C342 77.2994 342.2 77.6994 342.3 78.1994C342.4 78.4994 342.5 78.7994 342.6 79.0994C342.7 79.5994 342.9 80.0994 343 80.5994C343.1 80.8994 343.2 81.1994 343.2 81.4994C343.3 81.9994 343.4 82.4994 343.5 82.9994C343.5 83.1994 343.6 83.2994 343.6 83.4994C343.6 83.5994 343.6 83.5994 343.6 83.6994C343.7 84.2994 343.8 84.7994 343.9 85.3994C344.7 89.7994 345.1 94.3994 345.1 98.9994C345.1 132.699 322.5 162.399 290 171.399C280 174.199 272.9 182.599 272.3 192.499C272.3 192.999 272.3 193.499 272.3 193.899C272.3 193.999 272.3 194.199 272.3 194.299C272.3 194.399 272.3 194.599 272.3 194.699C272.3 195.199 272.3 195.699 272.3 196.099C272.9 205.999 280 214.499 290 217.199C322.4 226.199 345.1 255.999 345.1 289.599C345.1 294.199 344.7 298.799 343.9 303.199C342.8 309.499 340.8 315.599 338.1 321.499H202C199.3 315.699 197.3 309.499 196.2 303.199C195.4 298.799 195 294.199 195 289.599C195 255.899 217.6 226.199 250.1 217.199C260.1 214.399 267.2 205.999 267.8 196.099C267.8 195.599 267.8 195.099 267.8 194.699C267.8 194.599 267.8 194.399 267.8 194.299C267.8 194.199 267.8 193.999 267.8 193.899C267.8 193.399 267.8 192.899 267.8 192.499C267.2 182.599 260.1 174.199 250.1 171.399C217.7 162.399 195 132.599 195 98.9994C195 94.3994 195.4 89.7994 196.2 85.3994C196.3 84.5994 196.5 83.7994 196.7 82.9994C196.7 82.9994 196.7 82.9994 196.7 82.8994C196.9 82.0994 197 81.3994 197.2 80.5994V80.4994C197.3 79.8994 197.5 79.2994 197.7 78.7994C197.7 78.6994 197.7 78.6994 197.7 78.6994C197.8 78.4994 197.8 78.1994 197.9 77.9994C198 77.5994 198.1 77.1994 198.3 76.7994C198.3 76.6994 198.3 76.6994 198.3 76.6994C198.4 76.3994 198.5 76.0994 198.6 75.8994H196C195.7 76.6994 195.5 77.5994 195.3 78.3994C195.1 78.8994 195 79.4994 194.9 79.9994C194.8 80.2994 194.8 80.5994 194.7 80.8994V80.9994C194.6 81.5994 194.4 82.0994 194.3 82.6994C194.1 83.4994 194 84.1994 193.8 84.9994C192.9 89.5994 192.5 94.2994 192.5 99.0994C192.5 134.799 216.6 164.899 249.4 173.999C258.1 176.399 264.7 183.799 265.3 192.799C265.3 193.199 265.3 193.699 265.3 194.099C265.3 194.199 265.3 194.399 265.3 194.499C265.3 194.599 265.3 194.799 265.3 194.899C265.3 195.299 265.3 195.799 265.3 196.199C264.8 205.199 258.2 212.599 249.4 214.999C216.6 224.099 192.5 254.199 192.5 289.899C192.5 294.699 192.9 299.399 193.8 303.999C195.1 311.199 197.4 317.999 200.5 324.299H339.8C342.9 317.999 345.2 311.199 346.5 303.999C347.4 299.399 347.8 294.699 347.8 289.899C347.7 254.199 323.6 224.099 290.8 214.999Z" fill="#B7DDF6"/>
<path d="M366.801 320.099C366.801 324.199 363.501 327.399 359.501 327.399H180.601C176.501 327.399 173.301 324.099 173.301 320.099C173.301 315.999 176.601 312.799 180.601 312.799H359.501C363.501 312.799 366.801 316.099 366.801 320.099Z" fill="#389FE5"/>
<path d="M329.499 122.6C329.599 123.2 328.099 123.9 326.199 124.4C324.199 124.8 322.599 124.7 322.399 124.1C322.299 123.5 323.799 122.8 325.699 122.3C327.699 122 329.399 122.1 329.499 122.6Z" fill="#FF9A30"/>
<path d="M325 129C325.1 129.6 324.2 130.2 322.9 130.5C321.6 130.8 320.5 130.5 320.4 130C320.3 129.4 321.2 128.8 322.5 128.5C323.7 128.2 324.8 128.5 325 129Z" fill="#FF9A30"/>
<path d="M319.199 127.299C319.299 127.899 318.399 128.499 317.099 128.799C315.799 129.099 314.699 128.799 314.599 128.299C314.499 127.699 315.399 127.099 316.699 126.799C317.999 126.499 319.099 126.799 319.199 127.299Z" fill="#FF9A30"/>
<path d="M279.6 132.4C279.7 132.7 279.2 133.1 278.5 133.2C277.8 133.3 277.2 133.2 277.2 132.9C277.1 132.6 277.6 132.2 278.3 132.1C279 132 279.6 132.1 279.6 132.4Z" fill="#FF9A30"/>
<path d="M310.2 123.1C310.3 123.4 309.8 123.8 309.1 123.9C308.4 124 307.8 123.9 307.8 123.6C307.7 123.3 308.2 122.9 308.9 122.8C309.6 122.7 310.2 122.8 310.2 123.1Z" fill="#FF9A30"/>
<path d="M299.1 133.799C299.2 134.099 298.7 134.499 298 134.599C297.3 134.699 296.7 134.599 296.7 134.299C296.6 133.999 297.1 133.599 297.8 133.499C298.5 133.399 299.1 133.499 299.1 133.799Z" fill="#FF9A30"/>
<path d="M284.299 140.9C284.399 141.2 283.899 141.6 283.199 141.7C282.499 141.8 281.899 141.7 281.899 141.4C281.799 141.1 282.299 140.7 282.999 140.6C283.699 140.5 284.299 140.6 284.299 140.9Z" fill="#FF9A30"/>
<path d="M270.9 260.2L270.4 260L269.9 260.2C269.9 260.2 265.4 295.2 217.4 312.8C243.7 312.8 260.3 312.8 270.7 312.8C284.6 312.8 287.5 312.8 287.5 312.8C295.3 312.8 306.7 312.8 323.4 312.8C275.4 295.2 270.9 260.2 270.9 260.2Z" fill="#FF9A30"/>
<path d="M344.402 76.7992C344.402 80.6992 311.102 83.8992 270.002 83.8992C228.902 83.8992 195.602 80.6992 195.602 76.7992C195.602 72.8992 228.902 69.6992 270.002 69.6992C311.102 69.6992 344.402 72.8992 344.402 76.7992Z" fill="#B9DBEF"/>
<path d="M359.501 65.8994H180.601C178.601 65.8994 176.701 66.6994 175.401 68.0994C174.101 69.3994 173.301 71.2994 173.301 73.2994C173.301 77.3994 176.601 80.5994 180.701 80.5994H196.001H198.601H341.601H344.301H359.601C363.701 80.5994 366.901 77.2994 366.901 73.2994C366.801 69.1994 363.501 65.8994 359.501 65.8994Z" fill="#389FE5"/>
<path d="M66 328L426 328" stroke="#389FE5" stroke-miterlimit="10"/>
<path d="M17.2012 162.499L22.4012 165.299L19.8012 158.499" fill="#CFEFFE"/>
<path d="M12.0004 164.899C18.1308 164.899 23.1004 159.93 23.1004 153.799C23.1004 147.669 18.1308 142.699 12.0004 142.699C5.87004 142.699 0.900391 147.669 0.900391 153.799C0.900391 159.93 5.87004 164.899 12.0004 164.899Z" fill="#CFEFFE"/>
<path d="M11.4008 147.599C13.6008 147.399 15.6008 149.099 15.8008 151.299C15.9008 151.899 15.7008 152.599 15.5008 153.199L15.1008 154.199L13.7008 157.699L12.3008 157.799L10.9008 157.899L9.00077 154.699L8.40076 153.799C8.00076 153.199 7.80077 152.599 7.70077 151.899C7.50077 149.699 9.10076 147.799 11.4008 147.599ZM11.3008 146.899C8.70077 147.099 6.80077 149.399 7.00077 151.999C7.10077 152.799 7.40077 153.499 7.80077 154.099L10.5008 158.499L12.3008 158.299L14.1008 158.099L16.0008 153.299C16.3008 152.599 16.4008 151.899 16.4008 151.099C16.2008 148.599 13.9008 146.699 11.3008 146.899Z" fill="#67C2EF"/>
<path d="M12.6 161.899C11.6 161.999 10.7 161.199 10.6 160.199L10.5 158.899L14.1 158.599L14.2 159.899C14.4 160.899 13.6 161.799 12.6 161.899Z" fill="#67C2EF"/>
<path d="M9.8 152.699C9.6 152.699 9.5 152.599 9.5 152.399C9.5 152.199 9.6 152.099 9.8 152.099L13.8 151.699C14 151.699 14.1 151.799 14.1 151.999C14.1 152.199 14 152.299 13.8 152.299L9.8 152.699Z" fill="#67C2EF"/>
<path d="M12.3 158.399C12.1 158.399 12 158.299 12 158.099L11.5 152.199C11.5 151.999 11.6 151.899 11.8 151.899C12 151.899 12.1 151.999 12.1 152.199L12.6 158.099C12.6 158.199 12.5 158.399 12.3 158.399Z" fill="#67C2EF"/>
<path d="M372.102 293.7L376.102 297.7C376.102 297.7 381.002 294.2 381.002 293.4C381.002 292.6 377.402 288.8 376.402 288.8C375.402 288.9 372.102 293.7 372.102 293.7Z" fill="#FF9A30"/>
<path d="M356.101 293.7L352.101 297.7C352.101 297.7 347.201 294.2 347.201 293.4C347.201 292.6 350.801 288.8 351.801 288.8C352.901 288.9 356.101 293.7 356.101 293.7Z" fill="#FF9A30"/>
<path d="M362.15 289.717H366.15V286.317H362.15V289.717Z" fill="#153351"/>
<path d="M368.255 324.435C377.988 322.155 384.031 312.417 381.752 302.684C379.473 292.95 369.734 286.908 360.001 289.187C350.267 291.466 344.225 301.204 346.504 310.937C348.783 320.671 358.521 326.714 368.255 324.435Z" fill="#FF9A30"/>
<path opacity="0.3" d="M380.8 307.6C380.8 314.3 377.2 320.1 371.8 323.2C377.9 320.3 382.2 314 382.2 306.8C382.2 296.8 374.1 288.7 364.1 288.7C360.8 288.7 357.6 289.6 354.9 291.2C357.2 290.1 359.9 289.5 362.6 289.5C372.7 289.4 380.8 297.5 380.8 307.6Z" fill="#FF9A30"/>
<path opacity="0.6" d="M346 306.8C346 316.8 354.1 324.9 364.1 324.9C368 324.9 371.6 323.7 374.6 321.6C372.1 322.9 369.2 323.6 366.1 323.6C356.1 323.6 348 315.8 348 306.2C348 296.6 356.1 288.8 366.1 288.8C365.5 288.7 364.8 288.7 364.1 288.7C354.1 288.7 346 296.8 346 306.8Z" fill="#FDD622"/>
<path d="M364.102 320.3C371.557 320.3 377.602 314.256 377.602 306.8C377.602 299.344 371.557 293.3 364.102 293.3C356.646 293.3 350.602 299.344 350.602 306.8C350.602 314.256 356.646 320.3 364.102 320.3Z" fill="#153351"/>
<path d="M364.101 319.2C370.949 319.2 376.501 313.648 376.501 306.8C376.501 299.952 370.949 294.4 364.101 294.4C357.253 294.4 351.701 299.952 351.701 306.8C351.701 313.648 357.253 319.2 364.101 319.2Z" fill="#FFFDFF"/>
<path d="M361.401 287.4H367.001C367.001 287.4 368.001 285 367.401 284.8C366.901 284.6 361.601 284.5 360.901 284.8C360.201 285.1 361.401 287.4 361.401 287.4Z" fill="#FF9A30"/>
<path d="M364.101 307.7L364.601 307.5C364.801 307.4 364.901 307.1 364.801 306.9L361.101 298.2C361.001 298 360.701 297.9 360.501 298L360.001 298.2C359.801 298.3 359.701 298.6 359.801 298.8L363.501 307.5C363.601 307.7 363.901 307.8 364.101 307.7Z" fill="#153351"/>
<path d="M364.102 308.8C365.206 308.8 366.102 307.904 366.102 306.8C366.102 305.695 365.206 304.8 364.102 304.8C362.997 304.8 362.102 305.695 362.102 306.8C362.102 307.904 362.997 308.8 364.102 308.8Z" fill="#153351"/>
<path opacity="0.6" d="M365.4 322.8C365.8 322.8 366.3 322.8 366.7 322.9C366.7 322.9 366.7 322.9 366.7 323C366.3 323.1 365.9 323.1 365.4 323.1C365.2 323 365.2 322.8 365.4 322.8ZM363.5 322.8C363.8 322.9 364 322.9 364.2 322.9C364.2 322.9 364.2 322.9 364.2 322.8C364 322.7 363.8 322.7 363.5 322.6C363.4 322.5 363.4 322.7 363.5 322.8ZM351.6 297.7C351.8 297.2 352.1 296.8 352.4 296.4C352.5 296.2 352.3 296 352.1 296.1C351.7 296.5 351.4 297 351.2 297.5C351.1 297.8 351.5 298 351.6 297.7ZM350 300.3C350 300.6 350.4 300.7 350.4 300.4C350.4 300.1 350.5 299.8 350.6 299.5C350.7 299.3 350.8 299 350.8 298.8C350.6 298.9 350.5 299.2 350.3 299.4C350.1 299.6 350.1 299.9 350 300.3ZM356.3 293.3C357 292.8 357.8 292.3 358.5 291.8C358.7 291.7 358.6 291.3 358.3 291.4C357.4 291.7 356.6 292.1 355.9 292.6C355.5 292.9 355.9 293.6 356.3 293.3Z" fill="#FDD622"/>
<path d="M313.702 339.799C311.602 335.799 311.102 330.899 312.902 326.599C314.002 324.099 315.402 321.699 317.602 320.099C319.502 318.699 321.702 317.599 323.902 316.999C327.802 315.999 332.202 316.299 335.702 318.399C338.602 320.099 340.802 322.899 342.202 325.899C343.602 328.899 344.202 332.599 347.102 334.499C347.902 334.999 349.402 335.299 349.802 336.299C350.302 337.499 349.402 338.699 348.902 339.799C348.302 341.099 347.802 342.299 347.202 343.599C346.802 344.499 346.402 346.099 345.302 346.399C344.302 346.799 343.202 345.899 342.202 345.599C339.602 344.899 336.902 345.899 334.502 346.899C331.802 348.099 327.402 347.499 324.502 347.199C319.102 346.599 316.202 344.699 313.702 339.799Z" fill="#95E2F9"/>
<path d="M349.102 340.999C349.102 340.999 340.802 336.899 336.902 334.699C335.902 334.099 334.802 333.499 333.302 332.199C332.402 331.399 330.502 329.399 331.702 328.099C333.102 326.599 334.802 329.099 334.802 330.399C334.802 331.499 333.802 333.199 332.902 333.899C331.202 335.099 328.702 334.799 327.102 333.799C325.902 333.099 326.602 331.299 327.902 331.399C329.202 331.499 332.802 334.199 332.002 336.399C331.602 337.499 330.602 338.399 329.502 338.999C327.502 339.999 325.002 337.499 327.702 336.599C329.702 335.999 332.202 336.599 334.002 337.399C339.102 339.399 343.002 340.999 348.002 343.099" stroke="white" stroke-width="0.6158" stroke-miterlimit="10"/>
<path d="M346.994 346.074L350.795 337.585L349.973 337.218L346.173 345.706L346.994 346.074Z" fill="#389FE5"/>
<path d="M349.802 346.899C349.702 346.699 349.402 347.499 349.102 347.499L349.002 346.899C348.802 346.999 348.502 347.499 348.402 347.199L348.302 347.099C348.202 346.899 347.902 346.799 347.602 346.899C347.402 346.999 347.102 346.899 346.902 346.699L346.702 346.299C346.602 346.199 346.602 345.999 346.702 345.899L350.502 337.399C350.602 337.299 350.702 337.199 350.802 337.099L351.202 336.999C351.502 336.899 351.702 337.099 351.802 337.299C351.902 337.499 352.202 337.699 352.402 337.599H352.502C352.702 337.499 353.002 337.699 353.102 337.899V337.999C353.202 338.199 353.502 338.399 353.702 338.299H353.802C354.002 338.199 354.302 338.399 354.402 338.599V338.699C354.502 338.999 354.502 339.199 354.402 339.499L351.002 347.099C350.902 347.299 350.902 346.799 350.602 346.899L350.102 345.899C349.902 345.999 349.802 347.299 349.702 347.099L349.802 346.899Z" fill="#67C2EF"/>
<path d="M347.901 346.7C347.801 346.7 347.701 346.6 347.801 346.5L349.601 342.6C349.601 342.5 349.701 342.5 349.801 342.5C349.901 342.5 349.901 342.6 349.901 342.7L348.101 346.6C348.001 346.6 347.901 346.7 347.901 346.7Z" fill="#389FE5"/>
<path d="M350.401 341C350.301 341 350.201 340.9 350.301 340.8L351.301 338.6C351.301 338.5 351.401 338.5 351.501 338.5C351.601 338.5 351.601 338.6 351.601 338.7L350.601 340.9C350.601 340.9 350.501 341 350.401 341Z" fill="#389FE5"/>
<path d="M350.1 344.399C350 344.399 349.9 344.299 350 344.199L352.6 338.499C352.6 338.399 352.7 338.399 352.8 338.399C352.9 338.399 352.9 338.499 352.9 338.599L350.3 344.299C350.2 344.299 350.1 344.399 350.1 344.399Z" fill="#389FE5"/>
<path d="M348.802 347.1C348.702 347.1 348.602 347 348.702 346.9L349.502 345.2C349.502 345.1 349.602 345.1 349.702 345.1C349.802 345.1 349.802 345.2 349.802 345.3L349.002 347C349.002 347.1 348.902 347.1 348.802 347.1Z" fill="#389FE5"/>
<path d="M352.001 342.699C351.901 342.699 351.801 342.599 351.901 342.499L353.301 339.399C353.301 339.299 353.401 339.299 353.501 339.299C353.601 339.299 353.601 339.399 353.601 339.499L352.201 342.599C352.101 342.699 352.001 342.699 352.001 342.699Z" fill="#389FE5"/>
<path d="M350.501 345.899C350.401 345.899 350.301 345.799 350.401 345.699L351.001 344.499C351.001 344.399 351.101 344.399 351.201 344.399C351.301 344.399 351.301 344.499 351.301 344.599L350.701 345.799C350.601 345.899 350.601 345.899 350.501 345.899Z" fill="#389FE5"/>
<path d="M350.001 341.999C349.901 341.999 349.801 341.899 349.901 341.799L350.101 341.399C350.101 341.299 350.201 341.299 350.301 341.299C350.401 341.299 350.401 341.399 350.401 341.499L350.201 341.899C350.101 341.899 350.101 341.999 350.001 341.999Z" fill="#389FE5"/>
<g opacity="0.5">
<path d="M313.702 339.8C311.602 335.8 311.102 330.9 312.902 326.6C313.102 326.1 313.302 325.6 313.602 325.2C311.002 332.1 314.202 340.6 321.402 343.6C327.402 346.1 333.002 345.1 338.202 340.2C339.302 339.2 340.502 338.7 342.102 339.1C343.502 339.5 344.702 340.5 346.102 340.9C346.302 340.9 346.602 341 346.802 340.9C347.002 340.8 347.202 340.7 347.302 340.5C348.502 339.3 349.302 337.7 349.702 336C349.802 336.1 349.802 336.2 349.902 336.3C350.402 337.5 349.502 338.7 349.002 339.8C348.402 341.1 347.902 342.3 347.302 343.6C346.902 344.5 346.502 346.1 345.402 346.4C344.402 346.8 343.302 345.9 342.302 345.6C339.702 344.9 337.002 345.9 334.602 346.9C331.902 348.1 327.502 347.5 324.602 347.2C319.102 346.6 316.202 344.7 313.702 339.8Z" fill="#95E2F9"/>
</g>
<path d="M306.801 365.2C306.801 368 349.301 370.4 401.801 370.4C454.301 370.4 496.801 368.1 496.801 365.2C496.801 362.4 454.301 360 401.801 360C349.301 360.1 306.801 362.4 306.801 365.2Z" fill="#E6ECEF"/>
<path d="M425.801 350.5C425.801 350.5 425.501 357.8 425.901 359.5C426.201 360.8 430.301 361 430.801 360.3C431.301 359.6 431.901 351.1 431.901 351.1" fill="#FFBE9D"/>
<path d="M432.001 361.399C432.001 362.299 432.501 365.099 431.301 365.099H426.601C426.601 365.099 424.701 365.099 423.501 365.099H419.301C416.201 365.099 414.501 364.699 414.401 364.199C414.101 361.999 424.801 358.299 425.801 358.299H425.901C426.001 358.399 426.401 358.499 426.701 358.999C427.401 360.199 429.001 360.799 430.301 360.199C430.601 360.099 430.801 359.899 431.001 359.699C431.001 359.599 432.001 359.999 432.001 361.399Z" fill="#4C4051"/>
<path d="M470.1 352.099C470.1 352.099 471.4 355.599 472 356.699C472.6 357.899 476.4 356.399 476.6 355.599C476.8 354.799 473.7 348.799 473.7 348.799" fill="#FFBE9D"/>
<path d="M478.3 356.399C479.5 358.799 479.2 359.899 478.8 360.199L475.6 362.099C475.5 362.199 474.1 362.799 473.1 363.499C472.2 364.099 470.6 364.799 469.5 364.999C466.2 365.799 463.7 365.399 463.4 364.899C462.3 363.099 470.5 355.999 471.4 355.699H471.5C471.7 355.699 472 355.699 472.4 356.099C473.2 356.799 474.3 356.999 475.2 356.399C475.7 356.099 476.2 355.699 476.4 355.099C476.5 355.099 477.7 355.199 478.3 356.399Z" fill="#4C4051"/>
<path d="M474.801 349.6C474.901 349.8 474.801 350.1 474.601 350.2C471.701 352.3 469.601 352.5 469.601 352.5C468.901 351.4 447.601 317.8 443.501 311.3C443.401 311.2 443.301 311 443.301 310.9C443.301 310.9 443.301 310.9 443.301 310.8C443.001 310.3 442.801 309.9 442.601 309.5C442.601 309.4 442.501 309.3 442.501 309.3C442.401 309 442.301 308.8 442.301 308.6C442.301 308.5 442.201 308.3 442.201 308.2C442.201 308.2 442.201 308.2 442.201 308.1C441.601 305.2 440.301 300.2 438.601 294.4C437.701 291.1 436.601 287.6 435.601 284C434.801 281.2 434.001 278.4 433.201 275.8L427.301 252.7C427.201 252.4 427.401 252.1 427.701 252.1L432.501 251.8C438.601 251.4 445.901 248.3 447.501 247.7C447.701 247.6 447.901 247.7 448.101 247.8C455.001 254.7 453.701 263.4 452.901 267.8C452.501 269.8 452.401 271.8 452.601 273.9C453.101 280.2 454.001 291.9 454.101 300C454.101 300.2 454.501 305.1 459.101 310.8C460.001 311.8 460.801 312.8 461.601 313.9C468.401 324.2 471.001 340.5 474.801 349.6Z" fill="#285FAF"/>
<path opacity="0.35" d="M469.701 352.5C469.001 351.4 447.701 317.8 443.601 311.3C443.501 311.2 443.401 311 443.401 310.9C443.401 310.9 443.401 310.9 443.401 310.8C443.101 310.3 442.901 309.9 442.701 309.5C442.701 309.4 442.601 309.3 442.601 309.3C442.501 309 442.401 308.8 442.401 308.6C442.401 308.5 442.301 308.3 442.301 308.2C442.301 308.2 442.301 308.2 442.301 308.1C441.701 305.2 440.401 300.3 438.801 294.6C438.801 294.5 438.801 294.4 438.801 294.3L448.301 268.8C448.401 268.6 448.601 268.5 448.801 268.5H451.301C451.601 268.5 451.901 268.8 451.801 269.1C451.001 271.7 447.801 281.2 446.401 285.9C444.801 291.3 444.301 299.7 444.201 302.8C443.901 309.6 452.201 321.1 454.601 325.3C457.001 329.8 468.701 350.6 469.701 352.5Z" fill="#5275A0"/>
<path d="M447.801 272.6C448.501 272.3 451.401 270.7 453.201 265.5C453.301 265.3 453.201 265 453.001 264.9C450.201 263.1 430.901 251.1 426.301 252.5C424.901 253 422.201 297.9 422.201 298.8C422.201 299.3 422.201 304.1 422.201 304.7C422.501 312.3 425.201 350.4 425.501 354.6C425.501 354.8 425.701 355 425.901 355C426.601 355.1 428.501 355.4 431.101 355.3C431.301 355.1 431.401 355 431.601 354.9C432.801 344.7 438.101 325.5 435.401 313.4C435.401 313.3 435.301 313.1 435.301 313C435.301 312.8 435.301 312.5 435.201 312C434.601 306.7 434.501 308.2 436.001 301.5V301.4C439.301 293 445.401 277.7 447.401 272.6C447.701 272.7 447.701 272.6 447.801 272.6Z" fill="#285FAF"/>
<path d="M455.9 220.3C455.9 222.9 455.7 225.4 455.5 227.9C455.2 230.9 454.9 233.8 454.5 236.4C453.6 242.6 452.6 247.2 452.7 248.3C452.8 249 453 249.6 453.3 250.3C453.7 251.2 453 251.8 453 251.8C452.6 252 452.2 252.1 451.7 252.3C440.9 256.3 425 252.9 425 252.9C424.3 252.9 423.7 252.4 423.9 251.2C424.1 250.3 425.1 245.7 425.1 244.7C425.1 243.8 425.3 240.8 425.8 236.5C426 235 426.2 233.4 426.4 231.6C426.6 230.1 426.8 228.6 427.1 227C427.4 225.1 427.6 223.3 427.9 221.5C428.2 219.5 428.4 217.5 428.7 215.6C429.2 212.3 429.8 209 430.7 205.9C431.4 203.3 432.4 200.8 433.6 198.4C436.6 192.6 443.9 191.7 445.2 191.6C445.3 191.6 445.4 191.6 445.5 191.7C450.9 195.3 453.7 201.6 454.9 208.7C455.7 212.4 455.9 216.4 455.9 220.3Z" fill="#389FE5"/>
<path opacity="0.08" d="M445.001 205.2C444.601 210.6 442.601 228 434.201 235.7L434.101 235.8C433.701 236 431.101 237.3 426.301 236.6C426.001 236.6 425.801 236.3 425.901 236C426.201 233.4 426.601 230.3 427.101 227.1C427.101 227 427.101 226.9 427.201 226.9L429.301 212.3C429.301 212.3 431.401 205.2 434.301 202.4C436.101 200.6 444.201 204.8 444.201 204.8C444.401 204.4 445.101 204.7 445.001 205.2Z" fill="black"/>
<path d="M404 258.7C404 258.7 401.8 259.7 401 261.3H404.2" fill="#F2A181"/>
<path d="M384.401 312.2L384.501 345.3L350.701 345.4V312.3L384.401 312.2Z" fill="#FDCF33"/>
<path d="M350.701 312.2V345.3H342.801V312.3L350.701 312.2Z" fill="#FFD86C"/>
<path d="M388.701 320.6H355.001L350.701 312.2H384.501L388.701 320.6Z" fill="#F4BF2A"/>
<path d="M316.901 347.599H395.201C397.701 347.599 399.801 345.499 399.801 342.999V264.299C399.801 263.699 400.301 263.199 400.901 263.199H414.301C415.001 263.199 415.501 262.699 415.501 261.999C415.501 261.299 415.001 260.799 414.301 260.799H401.001C399.101 260.799 397.501 262.399 397.501 264.299V342.999C397.501 344.199 396.501 345.199 395.301 345.199H317.001C316.301 345.199 315.801 345.699 315.801 346.399C315.801 347.099 316.301 347.599 316.901 347.599Z" fill="#C1CED6"/>
<path d="M392.93 359.41C394.461 354.972 392.104 350.134 387.667 348.603C383.229 347.072 378.391 349.429 376.86 353.866C375.329 358.304 377.685 363.142 382.123 364.673C386.561 366.204 391.399 363.848 392.93 359.41Z" fill="#B3EAFF"/>
<path d="M384.9 361C387.33 361 389.3 359.03 389.3 356.6C389.3 354.17 387.33 352.2 384.9 352.2C382.47 352.2 380.5 354.17 380.5 356.6C380.5 359.03 382.47 361 384.9 361Z" fill="white"/>
<path d="M337.974 359.866C339.78 355.532 337.731 350.556 333.398 348.75C329.065 346.944 324.088 348.993 322.282 353.326C320.476 357.659 322.525 362.636 326.858 364.442C331.191 366.248 336.168 364.199 337.974 359.866Z" fill="#B3EAFF"/>
<path d="M325.701 356.6C325.701 359 327.701 361 330.101 361C332.501 361 334.501 359 334.501 356.6C334.501 354.2 332.501 352.2 330.101 352.2C327.701 352.2 325.701 354.2 325.701 356.6Z" fill="white"/>
<path d="M443.102 208.699C443.502 206.599 443.702 204.999 443.702 204.399C443.202 199.999 438.602 200.799 437.702 201.299C436.702 201.899 434.302 203.799 431.602 211.899C429.702 217.499 428.602 221.799 427.902 224.399C427.702 225.199 427.402 226.199 427.102 226.999L432.702 234.999C437.302 232.199 441.602 216.599 443.102 208.699Z" fill="#FFBE9D"/>
<path d="M424.102 233.399C421.602 236.999 412.702 250.799 408.602 255.799L411.702 258.199C411.802 257.999 412.002 257.799 412.102 257.499L413.502 256.599C416.202 253.599 419.202 251.099 423.602 246.699C428.102 242.099 432.202 237.299 433.902 234.399C434.102 234.099 436.502 230.099 436.602 229.699L427.702 225.199C427.802 225.399 425.902 230.799 424.102 233.399Z" fill="#FFBE9D"/>
<path d="M409.901 254.299C409.901 254.299 408.501 256.299 407.501 256.799C406.501 257.299 405.101 258.299 404.201 258.699C403.201 259.099 401.401 263.599 402.001 264.199C402.601 264.799 406.201 265.699 408.401 264.599C410.501 263.599 409.701 262.199 410.201 261.299C411.501 259.199 413.601 256.699 413.601 256.699L412.901 255.299L409.901 254.299Z" fill="#FFBE9D"/>
<path d="M445.701 191.699C445.501 192.099 445.201 192.399 444.901 192.699C443.001 194.599 439.501 194.899 438.001 194.999C437.701 194.999 437.401 194.699 437.501 194.399C437.601 193.799 437.701 192.699 437.101 190.899C437.001 190.599 436.701 190.499 436.401 190.599C433.901 191.499 431.501 191.999 430.001 191.399C429.901 191.399 429.901 191.299 429.801 191.299C428.701 190.199 427.801 188.799 427.101 187.299C427.001 187.099 426.801 186.999 426.601 186.999C425.901 187.099 424.901 187.099 424.701 186.499C424.401 185.699 424.901 183.099 425.101 182.099V181.999C425.101 181.299 425.401 180.399 425.101 179.499C425.001 179.299 424.501 178.999 424.401 178.799C423.301 177.099 422.801 174.799 422.701 173.899C422.701 173.699 422.701 173.499 422.901 173.399C424.001 172.599 428.201 169.599 428.601 169.499C429.001 169.399 438.801 167.599 439.201 167.699C439.501 167.799 444.501 173.699 445.201 180.099C445.401 182.599 444.901 184.399 444.201 185.699C444.201 185.899 444.101 190.299 445.701 191.699Z" fill="#FFBE9D"/>
<path d="M430.201 213C431.901 215.1 438.901 217.5 441.801 217.7C443.401 213.5 448.701 199.9 442.801 197.5C436.401 194.9 432.501 205 430.201 213Z" fill="#389FE5"/>
<path opacity="0.5" d="M444.902 192.8C443.002 194.7 439.502 195 438.002 195.1C437.702 195.1 437.402 194.8 437.502 194.5C437.602 193.9 437.702 192.7 437.102 190.9C437.002 190.7 437.102 190.5 437.302 190.4C437.702 190.1 438.502 189.4 439.302 188.6C439.602 188.3 440.202 188.5 440.202 188.9L440.002 193.4C440.002 193.7 440.202 193.9 440.502 193.9C441.302 193.9 443.502 193.9 444.902 192.8Z" fill="#FFBE9D"/>
<path d="M423.901 176.3C427.501 178.3 433.501 176.3 435.001 177.2C436.501 178.1 437.101 181.8 437.801 181.9C438.501 182 438.401 180.899 438.301 179.499C438.201 178.099 438.001 176.599 440.401 176.999C441.501 177.199 442.101 180.3 442.801 182.7C443.401 184.5 443.801 185.4 444.201 185.7C444.401 185.9 444.801 185.9 445.001 185.6C448.901 178.9 448.101 164 437.801 164.1C437.701 164.1 437.601 164.1 437.501 164C436.901 163.5 434.401 161.7 431.201 162.1C431.201 162.1 431.201 162.1 431.101 162.1C428.201 162.4 419.601 165.3 418.101 168.2C416.301 171.7 422.001 175.2 423.901 176.3Z" fill="#153351"/>
<g opacity="0.6">
<path d="M451.601 160.4L447.201 162.7L449.401 157" fill="#389FE5"/>
<path d="M455.901 162.4C460.982 162.4 465.101 158.281 465.101 153.2C465.101 148.118 460.982 144 455.901 144C450.82 144 446.701 148.118 446.701 153.2C446.701 158.281 450.82 162.4 455.901 162.4Z" fill="#389FE5"/>
</g>
<path opacity="0.5" d="M461.002 154.1C461.102 153.7 461.202 153.3 461.202 152.9C461.202 152.5 461.202 152.1 461.102 151.8L460.302 151.9C460.202 151.5 460.002 151.1 459.802 150.7L460.502 150.2C460.302 149.9 460.102 149.5 459.802 149.3C459.702 149.2 459.602 149.1 459.402 149L459.302 148.9C459.202 148.8 459.002 148.7 458.902 148.6L458.402 149.3L458.302 149.2L458.202 149.1C457.902 148.9 457.602 148.8 457.302 148.7L457.402 147.9C457.002 147.8 456.602 147.7 456.202 147.7C455.802 147.7 455.402 147.7 455.102 147.8L455.202 148.6C454.802 148.7 454.402 148.9 454.002 149.1L453.502 148.4C453.202 148.6 452.802 148.8 452.502 149.1C452.202 149.4 452.002 149.7 451.802 150L452.502 150.5C452.302 150.9 452.102 151.3 452.002 151.7L451.202 151.6C451.102 152 451.002 152.4 451.002 152.8C451.002 153.2 451.002 153.6 451.102 153.9L451.902 153.8C452.002 154.2 452.202 154.6 452.402 155L451.702 155.5C451.902 155.8 452.102 156.2 452.402 156.5C452.702 156.8 453.002 157 453.302 157.2L453.802 156.5C454.202 156.7 454.602 156.9 455.002 157L454.902 157.8C455.302 157.9 455.702 158 456.102 158C456.502 158 456.902 158 457.202 157.9L457.102 157.1C457.502 157 457.902 156.8 458.302 156.6L458.802 157.3C459.102 157.1 459.502 156.9 459.802 156.6C460.102 156.3 460.302 156 460.502 155.7L459.802 155.2C460.002 154.8 460.202 154.4 460.302 154L461.002 154.1ZM458.602 153C458.602 154.4 457.402 155.6 456.002 155.6C454.402 155.6 453.202 154.4 453.202 152.8C453.202 151.4 454.402 150.2 455.802 150.2C457.302 150.2 458.602 151.4 458.602 153Z" fill="white"/>
</svg>
